<?xml version="1.0" encoding="UTF-8"?>
<svg id="Layer_2" data-name="Layer 2" xmlns="http://www.w3.org/2000/svg" viewBox="0 0 2000 2000">
  <defs>
    <style>
      .cls-1 {
        fill: #00737f;
      }

      .cls-2 {
        fill: #4d4d4d;
      }

      .cls-3 {
        fill: #fff;
      }
    </style>
  </defs>
  <g id="Layer_3" data-name="Layer 3">
    <circle class="cls-3" cx="1000" cy="1000" r="1000"/>
    <g>
      <path class="cls-1" d="M1644.21,1000.5c-.04-4.7-.17-9.45-.2-10.25-.31-7.75-.97-15.48-1.96-23.17-1.9-14.62-4.82-29.21-8.42-43.5-28.83-114.15-146.19-201.34-259.82-215.83-52.07-6.64-105.41.19-154.56,18.39-65.73,24.33-123.36,66.18-171.16,117.77-.84-.5-1.8-1.37-3.04-2.63-17.41-17.65-34.67-35.43-52.26-52.9-42.61-42.32-87.87-83.77-138.81-115.96-91.34-57.72-202.35-74.32-303.22-31.89-93.37,39.28-163,122.13-186.51,220.69-5.73,24.01-8.47,62.6-8.47,87.27h133.13c-.1-21.98,3.98-57.35,11.18-78.35,24.32-70.93,93.64-122.71,168.72-124.78,62.43-1.73,121.78,28.77,170.34,68.05,76.98,62.28,142.81,139.13,211.59,210.07.05.05.1.1.15.16,38.85-39.33,73.09-83.25,114.57-119.79,54.32-47.84,123.98-81.32,197.47-62.88,39.12,9.82,73.17,34.96,97.66,66.58,10.99,14.18,20.09,29.82,26.96,46.39,6.89,16.63,10.43,34.14,15.46,51.32.11.38,1.16,4.96,1.62,4.96,44.8.07,89.59.15,134.39.22.37,0,.73,0,1.11,0h3.61c.42,0,.49-4.94.45-9.95Z"/>
      <path class="cls-2" d="M1506.47,1043.5c.1,21.98-5.98,62.35-13.18,83.35-33.78,98.51-137.8,147.89-234.22,115.9-62.28-20.67-113.66-65.15-160.37-109.71-52.49-50.08-100.59-104.47-151.07-156.53-.05-.05-.1-.1-.15-.16.17.18-74.64,79.67-81.78,86.98-55.93,57.16-123.16,108.93-207.8,99.39-68.78-7.76-122.95-57.27-149.49-119.22-7.57-17.66-11.24-36.71-15.42-55.55,0,0-1.58-5.45-1.58-5.45-.23-.76-8.14-.04-9.25-.03-7.25.05-12.51.28-19.77.42-19.91.39-39.8.77-59.71.96l-47.27-.34c0,19.59,4.07,47.54,8.31,66.58,4.27,19.17,10.2,37.96,17.71,56.1,11.15,26.94,27.02,52.21,45.34,74.86,20.28,24.97,44.36,46.88,71.37,64.38,70.05,45.38,156.89,59.91,238.03,41.61,81.26-18.33,154.04-67.28,210.69-127.28,1.15-1.22,2.3-2.45,3.45-3.68,0,0,.02.01.03.02l.55-.58s2.63,3.11,2.85,3.37c2.51,2.9,5.27,5.57,7.96,8.31s5.52,5.62,8.27,8.42,5.51,5.62,8.27,8.42c2.76,2.81,5.52,5.61,8.29,8.41s5.53,5.6,8.31,8.39,5.55,5.58,8.34,8.35c.81.81,1.62,1.61,2.43,2.41,42.61,42.32,87.87,83.77,138.81,115.96,91.34,57.72,202.35,74.32,303.22,31.89,93.37-39.28,163-122.13,186.51-220.69,5.73-24.01,10.47-67.6,10.47-92.27l-138.13-3Z"/>
    </g>
  </g>
</svg>